# 3ds Max Wavefront OBJ Exporter v0.94b - (c)2007 guruware
# File Created: 22.11.2010 13:54:51

mtllib Objects/powerup.mtl

#
# object Crate
#

v  -1.9684 5.2113 2.0172
v  -2.5956 5.2113 2.6169
v  2.6050 5.2113 2.6248
v  1.9796 5.2113 2.0232
v  -1.9684 0.6114 2.0172
v  -1.9684 0.0107 2.0172
v  -1.9623 0.0107 -1.9822
v  -1.9623 0.6114 -1.9822
v  1.9796 0.0107 2.0232
v  1.9796 0.6114 2.0232
v  1.9857 0.0107 -1.9761
v  1.9857 0.6114 -1.9761
v  2.6129 5.2113 -2.5759
v  -2.5878 5.2113 -2.5837
v  -1.9623 5.2113 -1.9822
v  1.9857 5.2113 -1.9761
v  -2.5878 0.0107 -2.5837
v  -2.5956 0.0107 2.6169
v  2.6129 0.0107 -2.5759
v  2.6050 0.0107 2.6248
v  1.9857 4.6105 -1.9761
v  -1.9623 4.6105 -1.9822
v  -1.9684 4.6105 2.0172
v  1.9796 4.6105 2.0232
v  1.9866 0.6114 -2.5767
v  -1.9615 0.6114 -2.5829
v  -1.9693 4.6105 2.6179
v  -1.9693 0.6114 2.6179
v  1.9787 4.6105 2.6238
v  -1.9615 4.6105 -2.5829
v  1.9787 0.6114 2.6238
v  1.9866 4.6105 -2.5767
v  -2.5947 4.6105 2.0162
v  -2.5947 0.6114 2.0162
v  -2.5887 0.6114 -1.9830
v  -2.5887 4.6105 -1.9830
v  2.6059 4.6105 2.0242
v  2.6119 4.6105 -1.9751
v  2.6120 0.6114 -1.9750
v  2.6059 0.6114 2.0242
v  -2.4210 0.1659 2.4427
v  -2.4135 0.1659 -2.4091
v  2.4381 0.1659 -2.4016
v  2.4308 0.1659 2.4501
v  -2.4210 5.0177 2.4427
v  2.4308 5.0177 2.4501
v  2.4381 5.0177 -2.4016
v  -2.4135 5.0177 -2.4091
# 48 vertices

vn 0.0000 1.0000 -0.0000
vn 1.0000 0.0000 0.0015
vn 0.0015 0.0000 -1.0000
vn 0.0016 0.0000 -1.0000
vn -1.0000 0.0000 -0.0015
vn -0.0016 0.0000 1.0000
vn 0.0000 -1.0000 -0.0000
vn -0.0015 0.0000 1.0000
vn -0.0014 0.0000 1.0000
vn 1.0000 0.0000 0.0014
vn -1.0000 0.0000 -0.0014
vn 0.0016 0.0002 -1.0000
vn 0.0015 -0.0002 -1.0000
vn 0.0013 0.0000 -1.0000
vn 0.0016 -0.0002 -1.0000
vn 0.0015 0.0002 -1.0000
vn -0.0015 -0.0001 1.0000
vn -0.0015 0.0001 1.0000
vn -1.0000 -0.0000 -0.0015
vn -1.0000 -0.0001 -0.0015
vn -1.0000 0.0001 -0.0015
vn 1.0000 -0.0001 0.0017
vn 1.0000 -0.0003 0.0015
vn 1.0000 0.0000 0.0019
vn 1.0000 -0.0000 0.0015
vn -0.0013 0.0000 1.0000
# 26 vertex normals

vt -0.1159 0.1208 0.0000
vt -0.0005 0.0005 0.0000
vt -0.0005 0.9995 0.0000
vt -0.1159 0.8792 0.0000
vt -0.8841 0.1159 0.0000
vt -0.8841 0.0005 0.0000
vt -0.1159 0.0005 0.0000
vt -0.1159 0.1159 0.0000
vt -0.8792 0.0005 0.0000
vt -0.1208 0.0005 0.0000
vt -0.1208 0.1159 0.0000
vt -0.8792 0.1159 0.0000
vt -0.9995 0.9995 0.0000
vt -0.9995 0.0005 0.0000
vt -0.8841 0.1208 0.0000
vt -0.8841 0.8792 0.0000
vt -0.1208 0.8841 0.0000
vt -0.1208 0.9995 0.0000
vt -0.8792 0.9995 0.0000
vt -0.8792 0.8841 0.0000
vt -0.8841 0.9995 0.0000
vt -0.8841 0.8841 0.0000
vt -0.1159 0.8841 0.0000
vt -0.1159 0.9995 0.0000
vt -0.9995 0.8792 0.0000
vt -0.9995 0.1208 0.0000
vt -0.9995 0.8841 0.0000
vt -0.9995 0.1159 0.0000
vt -0.0005 0.1159 0.0000
vt -0.0005 0.8841 0.0000
vt -0.0005 0.1208 0.0000
vt -0.0005 0.8792 0.0000
vt -0.9486 0.0514 0.0000
vt -0.0514 0.0514 0.0000
vt -0.0514 0.9486 0.0000
vt -0.9486 0.9486 0.0000
vt -0.0514 0.0478 0.0000
vt -0.0514 0.9451 0.0000
vt -0.9486 0.9451 0.0000
vt -0.9486 0.0478 0.0000
# 40 texture coords

g Crate
usemtl crate
s 1
f 1/1/1 2/2/1 3/3/1 
f 3/3/1 4/4/1 1/1/1 
f 5/5/2 6/6/2 7/7/2 
f 7/7/2 8/8/2 5/5/2 
f 9/9/3 6/10/3 5/11/3 
f 5/11/3 10/12/4 9/9/3 
f 11/6/5 9/7/5 10/8/5 
f 10/8/5 12/5/5 11/6/5 
f 11/10/6 12/11/6 8/12/6 
f 8/12/6 7/9/6 11/10/6 
f 13/13/1 14/14/1 15/15/1 
f 15/15/1 16/16/1 13/13/1 
f 14/14/1 2/2/1 1/1/1 
f 1/1/1 15/15/1 14/14/1 
f 17/2/7 7/1/7 6/15/7 
f 6/15/7 18/14/7 17/2/7 
f 19/3/7 11/4/7 7/1/7 
f 7/1/7 17/2/7 19/3/7 
f 20/13/7 9/16/7 11/4/7 
f 11/4/7 19/3/7 20/13/7 
f 21/17/8 16/18/6 15/19/6 
f 15/19/6 22/20/9 21/17/8 
f 1/21/2 23/22/2 22/23/2 
f 22/23/2 15/24/2 1/21/2 
f 23/17/3 1/18/3 4/19/3 
f 4/19/3 24/20/4 23/17/3 
f 4/24/5 16/21/5 21/22/5 
f 21/22/5 24/23/5 4/24/5 
f 8/15/1 12/16/1 25/25/1 
f 25/25/1 26/26/1 8/15/1 
f 5/5/2 23/22/2 27/27/10 
f 27/27/10 28/28/10 5/5/2 
f 23/15/7 24/16/7 29/25/7 
f 29/25/7 27/26/7 23/15/7 
f 8/8/2 26/29/10 30/30/10 
f 30/30/10 22/23/10 8/8/2 
f 5/1/1 28/31/1 31/32/1 
f 31/32/1 10/4/1 5/1/1 
f 10/8/5 31/29/5 29/30/5 
f 29/30/5 24/23/5 10/8/5 
f 12/5/5 21/22/11 32/27/11 
f 32/27/11 25/28/11 12/5/5 
f 22/1/7 30/31/7 32/32/7 
f 32/32/7 21/4/7 22/1/7 
f 3/3/1 13/13/1 16/16/1 
f 16/16/1 4/4/1 3/3/1 
f 20/13/7 18/14/7 6/15/7 
f 6/15/7 9/16/7 20/13/7 
f 26/11/12 25/12/12 19/14/12 
f 19/14/13 17/2/13 26/11/13 
f 26/11/14 17/2/14 14/3/14 
f 14/3/14 30/17/14 26/11/14 
f 13/13/14 19/14/14 25/12/14 
f 13/13/14 25/12/14 32/20/14 
f 13/13/15 32/20/15 30/17/15 
f 14/3/16 13/13/16 30/17/16 
f 31/11/17 28/12/17 18/14/17 
f 18/14/18 20/2/18 31/11/18 
f 31/11/6 20/2/6 3/3/6 
f 3/3/6 29/17/6 31/11/6 
f 2/13/6 18/14/6 28/12/6 
f 2/13/6 28/12/6 27/20/6 
f 2/13/18 27/20/18 29/17/18 
f 3/3/17 2/13/17 29/17/17 
f 2/3/11 33/23/5 34/8/19 
f 18/2/11 2/3/11 34/8/19 
f 17/14/20 18/2/20 34/8/19 
f 17/14/21 34/8/19 35/5/5 
f 14/13/11 17/14/11 35/5/5 
f 14/13/11 35/5/5 36/22/19 
f 2/3/20 14/13/20 36/22/19 
f 33/23/5 2/3/21 36/22/19 
f 3/13/2 37/22/2 38/23/22 
f 13/3/23 3/13/23 38/23/22 
f 13/3/24 38/23/22 39/8/25 
f 19/2/2 13/3/2 39/8/25 
f 20/14/25 19/2/25 39/8/25 
f 20/14/2 39/8/25 40/5/2 
f 3/13/2 20/14/2 40/5/2 
f 37/22/2 3/13/2 40/5/2 
f 8/12/26 22/20/9 36/27/26 
f 36/27/26 35/28/26 8/12/26 
f 5/11/4 34/29/4 33/30/4 
f 33/30/4 23/17/4 5/11/4 
f 5/1/1 8/15/1 35/6/1 
f 35/6/1 34/7/1 5/1/1 
f 10/12/4 24/20/4 37/27/4 
f 37/27/4 40/28/4 10/12/4 
f 10/4/1 40/24/1 39/21/1 
f 39/21/1 12/16/1 10/4/1 
f 22/1/7 23/15/7 33/6/7 
f 33/6/7 36/7/7 22/1/7 
f 12/11/6 39/29/6 38/30/6 
f 38/30/8 21/17/8 12/11/8 
f 21/4/7 38/24/7 37/21/7 
f 37/21/7 24/16/7 21/4/7 
f 41/33/7 42/34/7 43/35/7 
f 43/35/7 44/36/7 41/33/7 
f 45/34/1 46/35/1 47/36/1 
f 47/36/1 48/33/1 45/34/1 
f 41/37/5 45/38/5 48/39/5 
f 48/39/5 42/40/5 41/37/5 
f 42/37/3 48/38/3 47/39/3 
f 47/39/3 43/40/3 42/37/3 
f 43/37/2 47/38/2 46/39/2 
f 46/39/2 44/40/2 43/37/2 
f 44/37/8 46/38/8 45/39/8 
f 45/39/8 41/40/8 44/37/8 
# 108 faces

