# 3ds Max Wavefront OBJ Exporter v0.94b - (c)2007 guruware
# File Created: 07.12.2009 11:40:54

mtllib Objects/propeller.mtl

#
# object Cylinder02
#

v  -0.1109 0.0216 11.4247
v  1.2915 0.6025 11.4247
v  1.4071 0.0216 11.4247
v  0.9625 1.0949 11.4247
v  0.4700 1.4240 11.4247
v  -0.1109 1.5395 11.4247
v  -0.6918 1.4240 11.4247
v  -1.1842 1.0949 11.4247
v  -1.5133 0.6025 11.4247
v  -1.6288 0.0216 11.4247
v  -1.5133 -0.5593 11.4247
v  -1.1842 -1.0518 11.4247
v  -0.6918 -1.3808 11.4247
v  -0.1109 -1.4964 11.4247
v  0.4700 -1.3808 11.4247
v  0.9625 -1.0518 11.4247
v  1.2915 -0.5593 11.4247
v  1.2915 0.6025 13.5693
v  1.4071 0.0216 13.5693
v  0.9625 1.0949 13.5693
v  0.4700 1.4240 13.5693
v  -0.1109 1.5395 13.5693
v  -0.6918 1.4240 13.5693
v  -1.1842 1.0949 13.5693
v  -1.5133 0.6025 13.5693
v  -1.6288 0.0216 13.5693
v  -1.5133 -0.5593 13.5693
v  -1.1842 -1.0518 13.5693
v  -0.6918 -1.3808 13.5693
v  -0.1109 -1.4964 13.5693
v  0.4700 -1.3808 13.5693
v  0.9625 -1.0518 13.5693
v  1.2915 -0.5593 13.5693
v  1.2915 0.6025 15.7140
v  1.4071 0.0216 15.7140
v  0.9625 1.0949 15.7140
v  0.4700 1.4240 15.7140
v  -0.1109 1.5395 15.7140
v  -0.6918 1.4240 15.7140
v  -1.1842 1.0949 15.7140
v  -1.5133 0.6025 15.7140
v  -1.6288 0.0216 15.7140
v  -1.5133 -0.5593 15.7140
v  -1.1842 -1.0518 15.7140
v  -0.6918 -1.3808 15.7140
v  -0.1109 -1.4964 15.7140
v  0.4700 -1.3808 15.7140
v  0.9625 -1.0518 15.7140
v  1.2915 -0.5593 15.7140
v  1.2915 0.6025 17.8587
v  1.4071 0.0216 17.8587
v  0.9625 1.0949 17.8587
v  0.4700 1.4240 17.8587
v  -0.1109 1.5395 17.8587
v  -0.6918 1.4240 17.8587
v  -1.1842 1.0949 17.8587
v  -1.5133 0.6025 17.8587
v  -1.6288 0.0216 17.8587
v  -1.5133 -0.5593 17.8587
v  -1.1842 -1.0518 17.8587
v  -0.6918 -1.3808 17.8587
v  -0.1109 -1.4964 17.8587
v  0.4700 -1.3808 17.8587
v  0.9625 -1.0518 17.8587
v  1.2915 -0.5593 17.8587
v  -0.1109 0.0216 17.8587
# 66 vertices

vn 0.0000 0.0000 -1.0000
vn 1.0000 0.0000 0.0000
vn 0.9239 0.3827 0.0000
vn 0.7071 0.7071 0.0000
vn 0.3827 0.9239 0.0000
vn 0.0000 1.0000 0.0000
vn -0.3827 0.9239 0.0000
vn -0.7071 0.7071 -0.0000
vn -0.9239 0.3827 -0.0000
vn -1.0000 0.0000 -0.0000
vn -0.9239 -0.3827 -0.0000
vn -0.7071 -0.7071 -0.0000
vn -0.3827 -0.9239 -0.0000
vn 0.0000 -1.0000 -0.0000
vn 0.0000 -1.0000 0.0000
vn 0.3827 -0.9239 0.0000
vn 0.7071 -0.7071 0.0000
vn 0.9239 -0.3827 0.0000
vn -0.3827 0.9239 -0.0000
vn 0.3827 -0.9239 -0.0000
vn 0.0000 1.0000 -0.0000
vn -0.0000 -0.0000 1.0000
# 22 vertex normals

vt 0.5000 0.0000 0.0000
vt 0.8125 0.0000 1.0000
vt 0.7500 0.0000 1.0000
vt 0.8750 0.0000 1.0000
vt 0.9375 0.0000 1.0000
vt 0.0000 0.0000 1.0000
vt -0.0625 0.0000 1.0000
vt 0.0625 0.0000 1.0000
vt 0.1250 0.0000 1.0000
vt 0.1875 0.0000 1.0000
vt 0.2500 0.0000 1.0000
vt 0.3125 0.0000 1.0000
vt 0.3750 0.0000 1.0000
vt 0.4375 0.0000 1.0000
vt 0.5000 0.0000 1.0000
vt 0.5625 0.0000 1.0000
vt 0.6250 0.0000 1.0000
vt 0.6875 0.0000 1.0000
vt 0.8125 0.3333 1.0000
vt 0.7500 0.3333 1.0000
vt 0.8750 0.3333 1.0000
vt 0.9375 0.3333 1.0000
vt 0.0000 0.3333 1.0000
vt -0.0625 0.3333 1.0000
vt 0.0625 0.3333 1.0000
vt 0.1250 0.3333 1.0000
vt 0.1875 0.3333 1.0000
vt 0.2500 0.3333 1.0000
vt 0.3125 0.3333 1.0000
vt 0.3750 0.3333 1.0000
vt 0.4375 0.3333 1.0000
vt 0.5000 0.3333 1.0000
vt 0.5625 0.3333 1.0000
vt 0.6250 0.3333 1.0000
vt 0.6875 0.3333 1.0000
vt 0.8125 0.6667 1.0000
vt 0.7500 0.6667 1.0000
vt 0.8750 0.6667 1.0000
vt 0.9375 0.6667 1.0000
vt 0.0000 0.6667 1.0000
vt -0.0625 0.6667 1.0000
vt 0.0625 0.6667 1.0000
vt 0.1250 0.6667 1.0000
vt 0.1875 0.6667 1.0000
vt 0.2500 0.6667 1.0000
vt 0.3125 0.6667 1.0000
vt 0.3750 0.6667 1.0000
vt 0.4375 0.6667 1.0000
vt 0.5000 0.6667 1.0000
vt 0.5625 0.6667 1.0000
vt 0.6250 0.6667 1.0000
vt 0.6875 0.6667 1.0000
vt 0.8125 1.0000 1.0000
vt 0.7500 1.0000 1.0000
vt 0.8750 1.0000 1.0000
vt 0.9375 1.0000 1.0000
vt 0.0000 1.0000 1.0000
vt -0.0625 1.0000 1.0000
vt 0.0625 1.0000 1.0000
vt 0.1250 1.0000 1.0000
vt 0.1875 1.0000 1.0000
vt 0.2500 1.0000 1.0000
vt 0.3125 1.0000 1.0000
vt 0.3750 1.0000 1.0000
vt 0.4375 1.0000 1.0000
vt 0.5000 1.0000 1.0000
vt 0.5625 1.0000 1.0000
vt 0.6250 1.0000 1.0000
vt 0.6875 1.0000 1.0000
vt 0.5000 1.0000 0.0000
# 70 texture coords

g Cylinder02
usemtl 02___Default
s 1
f 1/1/1 2/2/1 3/3/1 
f 1/1/1 4/4/1 2/2/1 
f 1/1/1 5/5/1 4/4/1 
f 1/1/1 6/6/1 5/7/1 
f 1/1/1 7/8/1 6/6/1 
f 1/1/1 8/9/1 7/8/1 
f 1/1/1 9/10/1 8/9/1 
f 1/1/1 10/11/1 9/10/1 
f 1/1/1 11/12/1 10/11/1 
f 1/1/1 12/13/1 11/12/1 
f 1/1/1 13/14/1 12/13/1 
f 1/1/1 14/15/1 13/14/1 
f 1/1/1 15/16/1 14/15/1 
f 1/1/1 16/17/1 15/16/1 
f 1/1/1 17/18/1 16/17/1 
f 1/1/1 3/3/1 17/18/1 
s 8
f 3/3/2 18/19/3 19/20/2 
f 3/3/2 2/2/3 18/19/3 
f 2/2/3 20/21/4 18/19/3 
f 2/2/3 4/4/4 20/21/4 
f 4/4/4 21/22/5 20/21/4 
f 4/4/4 5/5/5 21/22/5 
f 5/7/5 22/23/6 21/24/5 
f 5/7/5 6/6/6 22/23/6 
f 6/6/6 23/25/7 22/23/6 
f 6/6/6 7/8/7 23/25/7 
f 7/8/7 24/26/8 23/25/7 
f 7/8/7 8/9/8 24/26/8 
f 8/9/8 25/27/9 24/26/8 
f 8/9/8 9/10/9 25/27/9 
f 9/10/9 26/28/10 25/27/9 
f 9/10/9 10/11/10 26/28/10 
f 10/11/10 27/29/11 26/28/10 
f 10/11/10 11/12/11 27/29/11 
f 11/12/11 28/30/12 27/29/11 
f 11/12/11 12/13/12 28/30/12 
f 12/13/12 29/31/13 28/30/12 
f 12/13/12 13/14/13 29/31/13 
f 13/14/13 30/32/14 29/31/13 
f 13/14/13 14/15/15 30/32/14 
f 14/15/15 31/33/16 30/32/14 
f 14/15/15 15/16/16 31/33/16 
f 15/16/16 32/34/17 31/33/16 
f 15/16/16 16/17/17 32/34/17 
f 16/17/17 33/35/18 32/34/17 
f 16/17/17 17/18/18 33/35/18 
f 17/18/18 19/20/2 33/35/18 
f 17/18/18 3/3/2 19/20/2 
f 19/20/2 34/36/3 35/37/2 
f 19/20/2 18/19/3 34/36/3 
f 18/19/3 36/38/4 34/36/3 
f 18/19/3 20/21/4 36/38/4 
f 20/21/4 37/39/5 36/38/4 
f 20/21/4 21/22/5 37/39/5 
f 21/24/5 38/40/6 37/41/5 
f 21/24/5 22/23/6 38/40/6 
f 22/23/6 39/42/19 38/40/6 
f 22/23/6 23/25/7 39/42/19 
f 23/25/7 40/43/8 39/42/19 
f 23/25/7 24/26/8 40/43/8 
f 24/26/8 41/44/9 40/43/8 
f 24/26/8 25/27/9 41/44/9 
f 25/27/9 42/45/10 41/44/9 
f 25/27/9 26/28/10 42/45/10 
f 26/28/10 43/46/11 42/45/10 
f 26/28/10 27/29/11 43/46/11 
f 27/29/11 44/47/12 43/46/11 
f 27/29/11 28/30/12 44/47/12 
f 28/30/12 45/48/13 44/47/12 
f 28/30/12 29/31/13 45/48/13 
f 29/31/13 46/49/14 45/48/13 
f 29/31/13 30/32/14 46/49/14 
f 30/32/14 47/50/20 46/49/14 
f 30/32/14 31/33/16 47/50/20 
f 31/33/16 48/51/17 47/50/20 
f 31/33/16 32/34/17 48/51/17 
f 32/34/17 49/52/18 48/51/17 
f 32/34/17 33/35/18 49/52/18 
f 33/35/18 35/37/2 49/52/18 
f 33/35/18 19/20/2 35/37/2 
f 35/37/2 50/53/3 51/54/2 
f 35/37/2 34/36/3 50/53/3 
f 34/36/3 52/55/4 50/53/3 
f 34/36/3 36/38/4 52/55/4 
f 36/38/4 53/56/5 52/55/4 
f 36/38/4 37/39/5 53/56/5 
f 37/41/5 54/57/21 53/58/5 
f 37/41/5 38/40/6 54/57/21 
f 38/40/6 55/59/19 54/57/21 
f 38/40/6 39/42/19 55/59/19 
f 39/42/19 56/60/8 55/59/19 
f 39/42/19 40/43/8 56/60/8 
f 40/43/8 57/61/9 56/60/8 
f 40/43/8 41/44/9 57/61/9 
f 41/44/9 58/62/10 57/61/9 
f 41/44/9 42/45/10 58/62/10 
f 42/45/10 59/63/11 58/62/10 
f 42/45/10 43/46/11 59/63/11 
f 43/46/11 60/64/12 59/63/11 
f 43/46/11 44/47/12 60/64/12 
f 44/47/12 61/65/13 60/64/12 
f 44/47/12 45/48/13 61/65/13 
f 45/48/13 62/66/14 61/65/13 
f 45/48/13 46/49/14 62/66/14 
f 46/49/14 63/67/20 62/66/14 
f 46/49/14 47/50/20 63/67/20 
f 47/50/20 64/68/17 63/67/20 
f 47/50/20 48/51/17 64/68/17 
f 48/51/17 65/69/18 64/68/17 
f 48/51/17 49/52/18 65/69/18 
f 49/52/18 51/54/2 65/69/18 
f 49/52/18 35/37/2 51/54/2 
s 1
f 66/70/22 51/54/22 50/53/22 
f 66/70/22 50/53/22 52/55/22 
f 66/70/22 52/55/22 53/56/22 
f 66/70/22 53/58/22 54/57/22 
f 66/70/22 54/57/22 55/59/22 
f 66/70/22 55/59/22 56/60/22 
f 66/70/22 56/60/22 57/61/22 
f 66/70/22 57/61/22 58/62/22 
f 66/70/22 58/62/22 59/63/22 
f 66/70/22 59/63/22 60/64/22 
f 66/70/22 60/64/22 61/65/22 
f 66/70/22 61/65/22 62/66/22 
f 66/70/22 62/66/22 63/67/22 
f 66/70/22 63/67/22 64/68/22 
f 66/70/22 64/68/22 65/69/22 
f 66/70/22 65/69/22 51/54/22 
# 128 faces

#
# object Box03
#

v  -13.7669 -0.7170 17.9491
v  -1.2886 -0.7170 17.9491
v  -13.7669 1.1677 17.4441
v  -1.2886 1.1677 17.4441
v  -1.2886 1.0300 16.9301
v  -1.2886 -0.8547 17.4351
v  -13.7669 1.0300 16.9301
v  -13.7669 -0.8547 17.4351
# 8 vertices

vn -0.0000 0.2588 0.9659
vn 0.0000 -0.2588 -0.9659
vn 1.0000 0.0000 0.0000
vn -0.0000 0.9659 -0.2588
vn -1.0000 -0.0000 -0.0000
vn 0.0000 -0.9659 0.2588
# 6 vertex normals

vt 0.0000 1.0000 0.0000
vt 0.0000 0.0000 0.0000
vt 1.0000 1.0000 0.0000
vt 1.0000 0.0000 0.0000
# 4 texture coords

g Box03
usemtl 04___Default
s 2
f 67/71/23 68/72/23 69/73/23 
f 70/74/23 69/73/23 68/72/23 
s 4
f 71/72/24 72/74/24 73/71/24 
f 74/73/24 73/71/24 72/74/24 
s 8
f 70/74/25 68/72/25 71/73/25 
f 72/71/25 71/73/25 68/72/25 
s 16
f 69/74/26 70/72/26 73/73/26 
f 71/71/26 73/73/26 70/72/26 
s 32
f 67/74/27 69/72/27 74/73/27 
f 73/71/27 74/73/27 69/72/27 
s 64
f 68/74/28 67/72/28 72/73/28 
f 74/71/28 72/73/28 67/72/28 
# 12 faces

#
# object Box04
#

v  -1.0842 13.5513 17.9491
v  -1.0842 1.0730 17.9491
v  0.8005 13.5513 17.4441
v  0.8005 1.0730 17.4441
v  0.6627 1.0730 16.9301
v  -1.2219 1.0730 17.4351
v  0.6627 13.5513 16.9301
v  -1.2219 13.5513 17.4351
# 8 vertices

vn 0.2588 -0.0000 0.9659
vn -0.2588 0.0000 -0.9659
vn 0.0000 -1.0000 -0.0000
vn 0.9659 0.0000 -0.2588
vn -0.0000 1.0000 0.0000
vn -0.9659 -0.0000 0.2588
# 6 vertex normals

vt 0.0000 1.0000 0.0000
vt 0.0000 0.0000 0.0000
vt 1.0000 1.0000 0.0000
vt 1.0000 0.0000 0.0000
# 4 texture coords

g Box04
usemtl 05___Default
s 2
f 75/75/29 76/76/29 77/77/29 
f 78/78/29 77/77/29 76/76/29 
s 4
f 79/76/30 80/78/30 81/75/30 
f 82/77/30 81/75/30 80/78/30 
s 8
f 78/78/31 76/76/31 79/77/31 
f 80/75/31 79/77/31 76/76/31 
s 16
f 77/78/32 78/76/32 81/77/32 
f 79/75/32 81/77/32 78/76/32 
s 32
f 75/78/33 77/76/33 82/77/33 
f 81/75/33 82/77/33 77/76/33 
s 64
f 76/78/34 75/76/34 80/77/34 
f 82/75/34 80/77/34 75/76/34 
# 12 faces

#
# object Box05
#

v  13.2773 1.0744 17.9491
v  0.7990 1.0744 17.9491
v  13.2773 -0.8102 17.4441
v  0.7990 -0.8102 17.4441
v  0.7990 -0.6725 16.9301
v  0.7990 1.2122 17.4351
v  13.2773 -0.6725 16.9302
v  13.2773 1.2122 17.4351
# 8 vertices

vn -0.0000 -0.2588 0.9659
vn 0.0000 0.2588 -0.9659
vn -1.0000 -0.0000 -0.0000
vn 0.0000 -0.9659 -0.2588
vn 1.0000 0.0000 0.0000
vn -0.0000 0.9659 0.2588
# 6 vertex normals

vt 0.0000 1.0000 0.0000
vt 0.0000 0.0000 0.0000
vt 1.0000 1.0000 0.0000
vt 1.0000 0.0000 0.0000
# 4 texture coords

g Box05
usemtl 04___Default
s 2
f 83/79/35 84/80/35 85/81/35 
f 86/82/35 85/81/35 84/80/35 
s 4
f 87/80/36 88/82/36 89/79/36 
f 90/81/36 89/79/36 88/82/36 
s 8
f 86/82/37 84/80/37 87/81/37 
f 88/79/37 87/81/37 84/80/37 
s 16
f 85/82/38 86/80/38 89/81/38 
f 87/79/38 89/81/38 86/80/38 
s 32
f 83/82/39 85/80/39 90/81/39 
f 89/79/39 90/81/39 85/80/39 
s 64
f 84/82/40 83/80/40 88/81/40 
f 90/79/40 88/81/40 83/80/40 
# 12 faces

#
# object GeoSphere05
#

v  -0.1585 0.1223 19.5176
v  1.0067 0.1223 19.1866
v  0.2015 1.2306 19.1866
v  1.8239 0.1223 18.2924
v  1.3668 1.2306 18.4664
v  0.4541 2.0078 18.2924
v  -1.1013 0.8073 19.1866
v  -0.7412 1.9155 18.4664
v  -1.7624 1.2876 18.2924
v  -1.1013 -0.5626 19.1866
v  -2.0440 0.1223 18.4664
v  -1.7624 -1.0429 18.2924
v  0.2015 -0.9859 19.1866
v  -0.7412 -1.6708 18.4664
v  0.4541 -1.7631 18.2924
v  1.3668 -0.9859 18.4664
v  1.9494 -0.5626 17.3011
v  1.9494 0.8073 17.3011
v  1.4453 -1.0429 16.3099
v  1.7269 0.1223 16.1359
v  1.4453 1.2876 16.3099
v  1.1443 1.9155 17.3011
v  -0.1585 2.3388 17.3011
v  0.4241 1.9155 16.1359
v  -0.7712 2.0078 16.3099
v  -1.4613 1.9155 17.3011
v  -2.2665 0.8073 17.3011
v  -1.6839 1.2306 16.1359
v  -2.1410 0.1223 16.3099
v  -2.2665 -0.5626 17.3011
v  -1.4613 -1.6708 17.3011
v  -1.6839 -0.9859 16.1359
v  -0.7712 -1.7631 16.3099
v  -0.1585 -2.0941 17.3011
v  1.1443 -1.6708 17.3011
v  0.4241 -1.6708 16.1359
v  -0.1585 0.1223 15.0847
v  -0.5186 1.2306 15.4157
v  0.7842 0.8073 15.4157
v  -1.3238 0.1223 15.4157
v  -0.5186 -0.9859 15.4157
v  0.7842 -0.5626 15.4157
# 42 vertices

vn -0.0000 -0.0000 1.0000
vn 0.5257 -0.0000 0.8507
vn 0.1625 0.5000 0.8507
vn 0.8944 -0.0000 0.4472
vn 0.6882 0.5000 0.5257
vn 0.2764 0.8507 0.4472
vn -0.4253 0.3090 0.8507
vn -0.2629 0.8090 0.5257
vn -0.7236 0.5257 0.4472
vn -0.4253 -0.3090 0.8507
vn -0.8507 -0.0000 0.5257
vn -0.7236 -0.5257 0.4472
vn 0.1625 -0.5000 0.8507
vn -0.2629 -0.8090 0.5257
vn 0.2764 -0.8507 0.4472
vn 0.6882 -0.5000 0.5257
vn 0.9511 -0.3090 0.0000
vn 0.9511 0.3090 0.0000
vn 0.7236 -0.5257 -0.4472
vn 0.8507 0.0000 -0.5257
vn 0.7236 0.5257 -0.4472
vn 0.5878 0.8090 0.0000
vn -0.0000 1.0000 0.0000
vn 0.2629 0.8090 -0.5257
vn -0.2764 0.8507 -0.4472
vn -0.5878 0.8090 0.0000
vn -0.9511 0.3090 -0.0000
vn -0.6882 0.5000 -0.5257
vn -0.8944 0.0000 -0.4472
vn -0.9511 -0.3090 -0.0000
vn -0.5878 -0.8090 -0.0000
vn -0.6882 -0.5000 -0.5257
vn -0.2764 -0.8507 -0.4472
vn 0.0000 -1.0000 -0.0000
vn 0.5878 -0.8090 -0.0000
vn 0.2629 -0.8090 -0.5257
vn 0.0000 0.0000 -1.0000
vn -0.1625 0.5000 -0.8507
vn 0.4253 0.3090 -0.8507
vn -0.5257 0.0000 -0.8507
vn -0.1625 -0.5000 -0.8507
vn 0.4253 -0.3090 -0.8507
# 42 vertex normals

vt 0.6000 1.0000 11.0300
vt 0.5000 0.8238 11.0300
vt 0.7000 0.8238 11.0300
vt 0.5000 0.6476 11.0300
vt 0.6000 0.6762 11.0300
vt 0.7000 0.6476 11.0300
vt 0.8000 1.0000 11.0300
vt 0.9000 0.8238 11.0300
vt 0.8000 0.6762 11.0300
vt 0.9000 0.6476 11.0300
vt 0.0000 1.0000 11.0300
vt -0.1000 0.8238 11.0300
vt 0.1000 0.8238 11.0300
vt -0.1000 0.6476 11.0300
vt 0.0000 0.6762 11.0300
vt 0.1000 0.6476 11.0300
vt 0.2000 1.0000 11.0300
vt 0.3000 0.8238 11.0300
vt 0.2000 0.6762 11.0300
vt 0.3000 0.6476 11.0300
vt 0.4000 1.0000 11.0300
vt 0.4000 0.6762 11.0300
vt 0.4500 0.5000 11.0300
vt 0.5500 0.5000 11.0300
vt 0.4000 0.3524 11.0300
vt 0.5000 0.3238 11.0300
vt 0.6000 0.3524 11.0300
vt 0.6500 0.5000 11.0300
vt 0.7500 0.5000 11.0300
vt 0.7000 0.3238 11.0300
vt 0.8000 0.3524 11.0300
vt 0.8500 0.5000 11.0300
vt 0.9500 0.5000 11.0300
vt 0.9000 0.3238 11.0300
vt -0.0500 0.5000 11.0300
vt -0.1000 0.3238 11.0300
vt 0.0000 0.3524 11.0300
vt 0.0500 0.5000 11.0300
vt 0.1500 0.5000 11.0300
vt 0.1000 0.3238 11.0300
vt 0.2000 0.3524 11.0300
vt 0.2500 0.5000 11.0300
vt 0.3500 0.5000 11.0300
vt 0.3000 0.3238 11.0300
vt 0.7000 0.0000 11.0300
vt 0.8000 0.1762 11.0300
vt 0.6000 0.1762 11.0300
vt -0.1000 0.0000 11.0300
vt 0.0000 0.1762 11.0300
vt -0.2000 0.1762 11.0300
vt 0.1000 0.0000 11.0300
vt 0.2000 0.1762 11.0300
vt 0.3000 0.0000 11.0300
vt 0.4000 0.1762 11.0300
vt 0.5000 0.0000 11.0300
# 55 texture coords

g GeoSphere05
usemtl 09___Default
s 1
f 91/83/41 92/84/42 93/85/43 
f 92/84/42 94/86/44 95/87/45 
f 92/84/42 95/87/45 93/85/43 
f 93/85/43 95/87/45 96/88/46 
f 91/89/41 93/85/43 97/90/47 
f 93/85/43 96/88/46 98/91/48 
f 93/85/43 98/91/48 97/90/47 
f 97/90/47 98/91/48 99/92/49 
f 91/93/41 97/94/47 100/95/50 
f 97/94/47 99/96/49 101/97/51 
f 97/94/47 101/97/51 100/95/50 
f 100/95/50 101/97/51 102/98/52 
f 91/99/41 100/95/50 103/100/53 
f 100/95/50 102/98/52 104/101/54 
f 100/95/50 104/101/54 103/100/53 
f 103/100/53 104/101/54 105/102/55 
f 91/103/41 103/100/53 92/84/42 
f 103/100/53 105/102/55 106/104/56 
f 103/100/53 106/104/56 92/84/42 
f 92/84/42 106/104/56 94/86/44 
f 94/86/44 107/105/57 108/106/58 
f 107/105/57 109/107/59 110/108/60 
f 107/105/57 110/108/60 108/106/58 
f 108/106/58 110/108/60 111/109/61 
f 96/88/46 112/110/62 113/111/63 
f 112/110/62 111/109/61 114/112/64 
f 112/110/62 114/112/64 113/111/63 
f 113/111/63 114/112/64 115/113/65 
f 99/92/49 116/114/66 117/115/67 
f 116/114/66 115/113/65 118/116/68 
f 116/114/66 118/116/68 117/115/67 
f 117/117/67 118/118/68 119/119/69 
f 102/98/52 120/120/70 121/121/71 
f 120/120/70 119/119/69 122/122/72 
f 120/120/70 122/122/72 121/121/71 
f 121/121/71 122/122/72 123/123/73 
f 105/102/55 124/124/74 125/125/75 
f 124/124/74 123/123/73 126/126/76 
f 124/124/74 126/126/76 125/125/75 
f 125/125/75 126/126/76 109/107/59 
f 111/109/61 112/110/62 108/106/58 
f 112/110/62 96/88/46 95/87/45 
f 112/110/62 95/87/45 108/106/58 
f 108/106/58 95/87/45 94/86/44 
f 115/113/65 116/114/66 113/111/63 
f 116/114/66 99/92/49 98/91/48 
f 116/114/66 98/91/48 113/111/63 
f 113/111/63 98/91/48 96/88/46 
f 119/119/69 120/120/70 117/117/67 
f 120/120/70 102/98/52 101/97/51 
f 120/120/70 101/97/51 117/117/67 
f 117/117/67 101/97/51 99/96/49 
f 123/123/73 124/124/74 121/121/71 
f 124/124/74 105/102/55 104/101/54 
f 124/124/74 104/101/54 121/121/71 
f 121/121/71 104/101/54 102/98/52 
f 109/107/59 107/105/57 125/125/75 
f 107/105/57 94/86/44 106/104/56 
f 107/105/57 106/104/56 125/125/75 
f 125/125/75 106/104/56 105/102/55 
f 127/127/77 128/128/78 129/129/79 
f 128/128/78 115/113/65 114/112/64 
f 128/128/78 114/112/64 129/129/79 
f 129/129/79 114/112/64 111/109/61 
f 127/130/77 130/131/80 128/132/78 
f 130/131/80 119/119/69 118/118/68 
f 130/131/80 118/118/68 128/132/78 
f 128/128/78 118/116/68 115/113/65 
f 127/133/77 131/134/81 130/131/80 
f 131/134/81 123/123/73 122/122/72 
f 131/134/81 122/122/72 130/131/80 
f 130/131/80 122/122/72 119/119/69 
f 127/135/77 132/136/82 131/134/81 
f 132/136/82 109/107/59 126/126/76 
f 132/136/82 126/126/76 131/134/81 
f 131/134/81 126/126/76 123/123/73 
f 127/137/77 129/129/79 132/136/82 
f 129/129/79 111/109/61 110/108/60 
f 129/129/79 110/108/60 132/136/82 
f 132/136/82 110/108/60 109/107/59 
# 80 faces

#
# object Box02
#

v  0.6417 -13.3874 17.9491
v  0.6417 -0.9090 17.9491
v  -1.2430 -13.3874 17.4441
v  -1.2430 -0.9090 17.4441
v  -1.1052 -0.9090 16.9301
v  0.7794 -0.9090 17.4351
v  -1.1052 -13.3874 16.9301
v  0.7794 -13.3874 17.4351
# 8 vertices

vn -0.2588 -0.0000 0.9659
vn 0.2588 0.0000 -0.9659
vn -0.0000 1.0000 0.0000
vn -0.9659 -0.0000 -0.2588
vn 0.0000 -1.0000 -0.0000
vn 0.9659 0.0000 0.2588
# 6 vertex normals

vt 0.0000 1.0000 0.0000
vt 0.0000 0.0000 0.0000
vt 1.0000 1.0000 0.0000
vt 1.0000 0.0000 0.0000
# 4 texture coords

g Box02
usemtl 05___Default
s 2
f 133/138/83 134/139/83 135/140/83 
f 136/141/83 135/140/83 134/139/83 
s 4
f 137/139/84 138/141/84 139/138/84 
f 140/140/84 139/138/84 138/141/84 
s 8
f 136/141/85 134/139/85 137/140/85 
f 138/138/85 137/140/85 134/139/85 
s 16
f 135/141/86 136/139/86 139/140/86 
f 137/138/86 139/140/86 136/139/86 
s 32
f 133/141/87 135/139/87 140/140/87 
f 139/138/87 140/140/87 135/139/87 
s 64
f 134/141/88 133/139/88 138/140/88 
f 140/138/88 138/140/88 133/139/88 
# 12 faces

